<?xml version="1.0" standalone="no"?>
<!DOCTYPE svg PUBLIC "-//W3C//DTD SVG 20010904//EN"
 "http://www.w3.org/TR/2001/REC-SVG-20010904/DTD/svg10.dtd">
<svg version="1.0" xmlns="http://www.w3.org/2000/svg"
 width="549.000000pt" height="420.000000pt" viewBox="0 0 549.000000 420.000000"
 preserveAspectRatio="xMidYMid meet">
<metadata>
Created by potrace 1.16, written by Peter Selinger 2001-2019
</metadata>
<g transform="translate(0.000000,420.000000) scale(0.100000,-0.100000)"
fill="#000000" stroke="none">
<path d="M3674 4152 c-43 -22 -151 -80 -239 -129 -262 -148 -392 -208 -685
-317 -69 -26 -152 -61 -185 -79 -55 -30 -63 -38 -104 -117 -25 -47 -109 -233
-187 -415 -78 -181 -147 -330 -152 -330 -6 0 -76 52 -157 115 -181 142 -203
154 -280 154 -72 0 -109 -15 -333 -142 -280 -159 -403 -215 -819 -376 -138
-53 -148 -62 -210 -182 -57 -111 -290 -661 -302 -715 -13 -56 -14 -220 -2
-253 16 -40 255 -290 771 -807 503 -504 546 -541 637 -555 92 -14 203 32 758
312 565 284 937 493 1064 595 75 61 92 99 105 230 l11 106 80 -46 c73 -42 84
-46 145 -45 82 1 98 7 705 309 489 244 710 362 929 498 222 138 246 171 254
347 l4 106 -64 124 c-71 138 -307 534 -401 674 -33 50 -78 110 -101 134 -92
100 -935 780 -1023 826 -56 28 -128 21 -219 -22z m138 -259 c33 -31 36 -69 14
-160 -8 -32 -17 -96 -21 -142 -5 -68 -4 -83 7 -78 139 61 155 65 189 47 56
-31 -8 -105 -122 -142 l-72 -23 7 -110 c3 -60 6 -141 6 -178 0 -66 1 -68 23
-61 12 3 70 35 129 70 186 110 348 184 403 184 29 0 50 -39 40 -72 -12 -36
-259 -187 -477 -293 -149 -71 -193 -84 -223 -61 -18 13 -21 33 -30 215 l-10
201 -40 -27 c-44 -30 -125 -63 -155 -63 -11 0 -24 9 -29 19 -16 29 18 65 129
137 l97 62 6 84 c8 95 9 218 3 218 -3 0 -42 -23 -88 -51 -46 -27 -133 -74
-193 -104 -194 -95 -296 -119 -311 -73 -9 31 17 51 198 148 84 46 194 108 243
138 116 70 239 142 244 142 3 0 18 -12 33 -27z m-2310 -1210 c26 -23 22 -47
-11 -81 -38 -38 -180 -110 -298 -153 -51 -18 -93 -38 -93 -45 0 -14 197 -233
216 -241 11 -4 173 76 401 198 52 28 65 32 90 24 19 -7 29 -18 31 -36 6 -52
-82 -109 -391 -252 l-49 -23 48 -64 c63 -86 134 -160 163 -171 32 -13 89 15
295 145 170 107 214 124 244 94 34 -34 -6 -78 -149 -158 -51 -29 -116 -70
-144 -91 -105 -79 -224 -115 -282 -86 -39 21 -124 113 -226 246 -45 58 -149
174 -233 258 -83 84 -154 162 -157 173 -9 33 30 65 123 103 47 19 150 67 229
106 79 39 150 71 159 71 8 0 24 -7 34 -17z"/>
</g>
</svg>
